<svg width="168" height="32" viewBox="0 0 168 32" fill="none" xmlns="http://www.w3.org/2000/svg">
<path fill-rule="evenodd" clip-rule="evenodd" d="M36.4492 18.0797V18.0394C36.4492 15.1688 38.7343 12.6797 41.6606 12.6797C43.5849 12.6797 44.7873 13.5633 45.7498 14.5669L45.0481 15.2895C44.1658 14.3857 43.1637 13.6033 41.6409 13.6033C39.3155 13.6033 37.5113 15.5506 37.5113 17.9994V18.0394C37.5113 20.509 39.3756 22.4754 41.7207 22.4754C43.1637 22.4754 44.2863 21.7334 45.1485 20.7694L45.8297 21.3714C44.7873 22.5565 43.5446 23.3994 41.6606 23.3994C38.7145 23.3994 36.4492 20.9503 36.4492 18.0797Z" fill="black"/>
<path fill-rule="evenodd" clip-rule="evenodd" d="M125.613 8.57031H128.039V14.2711C128.72 13.2672 129.702 12.4045 131.346 12.4045C133.731 12.4045 135.114 14.0107 135.114 16.4796V23.2243H132.689V17.2022C132.689 15.556 131.867 14.6126 130.423 14.6126C129.021 14.6126 128.039 15.596 128.039 17.2426V23.2243H125.613V8.57031Z" fill="black"/>
<path fill-rule="evenodd" clip-rule="evenodd" d="M143.689 18.6295C143.068 18.3889 142.206 18.2084 141.264 18.2084C139.74 18.2084 138.839 18.8305 138.839 19.8543V19.895C138.839 20.8986 139.74 21.4605 140.884 21.4605C142.487 21.4605 143.689 20.5571 143.689 19.2318V18.6295ZM143.629 23.0663V21.7616C142.908 22.6243 141.805 23.2868 140.202 23.2868C138.197 23.2868 136.434 22.1427 136.434 20.0146V19.9746C136.434 17.626 138.258 16.5025 140.723 16.5025C142.006 16.5025 142.828 16.6826 143.65 16.9437V16.7431C143.65 15.2777 142.727 14.4748 141.044 14.4748C139.861 14.4748 138.979 14.7356 138.017 15.1372L137.355 13.1899C138.518 12.6679 139.661 12.3066 141.385 12.3066C144.511 12.3066 146.035 13.9525 146.035 16.7834V23.0663H143.629Z" fill="black"/>
<path fill-rule="evenodd" clip-rule="evenodd" d="M147.625 12.5118H150.05V14.9C150.712 13.3143 151.934 12.2308 153.799 12.3108V14.8802H153.658C151.534 14.8802 150.05 16.2656 150.05 19.076V23.1105H147.625V12.5118Z" fill="black"/>
<path fill-rule="evenodd" clip-rule="evenodd" d="M161.802 17.0842C161.641 15.5187 160.72 14.2936 159.116 14.2936C157.633 14.2936 156.591 15.438 156.37 17.0842H161.802ZM153.965 17.8666V17.8273C153.965 14.7957 156.11 12.3066 159.136 12.3066C162.504 12.3066 164.207 14.9568 164.207 18.0074C164.207 18.2286 164.187 18.4491 164.167 18.6897H156.391C156.651 20.4162 157.874 21.3805 159.437 21.3805C160.62 21.3805 161.461 20.9382 162.303 20.1151L163.726 21.3805C162.725 22.5836 161.341 23.3675 159.397 23.3675C156.33 23.3675 153.965 21.1395 153.965 17.8666Z" fill="black"/>
<path fill-rule="evenodd" clip-rule="evenodd" d="M56.3351 18.0797V18.0394C56.3351 15.5704 54.491 13.6033 52.1261 13.6033C49.7008 13.6033 47.9567 15.5902 47.9567 17.9994V18.0394C47.9567 20.509 49.8011 22.4754 52.1656 22.4754C54.591 22.4754 56.3351 20.4885 56.3351 18.0797ZM46.8945 18.0797V18.0394C46.8945 15.1688 49.1191 12.6797 52.1656 12.6797C55.1927 12.6797 57.3972 15.1292 57.3972 17.9994V18.0394C57.3972 20.9096 55.1726 23.3994 52.1261 23.3994C49.099 23.3994 46.8945 20.9503 46.8945 18.0797Z" fill="black"/>
<path fill-rule="evenodd" clip-rule="evenodd" d="M58.832 12.9207H59.8139V14.7473C60.4754 13.6836 61.3976 12.6797 63.2216 12.6797C65.0056 12.6797 66.1076 13.7038 66.6691 14.8878C67.3306 13.7438 68.4326 12.6797 70.3569 12.6797C72.7822 12.6797 74.2857 14.3857 74.2857 16.9551V23.1584H73.303V17.0761C73.303 14.8676 72.1607 13.5827 70.2771 13.5827C68.5531 13.5827 67.05 14.908 67.05 17.1961V23.1584H66.0677V17.0156C66.0677 14.8878 64.9052 13.5827 63.0813 13.5827C61.257 13.5827 59.8139 15.189 59.8139 17.2566V23.1584H58.832V12.9207Z" fill="black"/>
<path fill-rule="evenodd" clip-rule="evenodd" d="M76.3672 12.9207H77.3491V14.7473C78.0106 13.6836 78.9328 12.6797 80.7567 12.6797C82.5407 12.6797 83.6428 13.7038 84.2043 14.8878C84.8657 13.7438 85.9681 12.6797 87.8921 12.6797C90.3174 12.6797 91.8209 14.3857 91.8209 16.9551V23.1584H90.8389V17.0761C90.8389 14.8676 89.6962 13.5827 87.8122 13.5827C86.0883 13.5827 84.5852 14.908 84.5852 17.1961V23.1584H83.6032V17.0156C83.6032 14.8878 82.4404 13.5827 80.6165 13.5827C78.7921 13.5827 77.3491 15.189 77.3491 17.2566V23.1584H76.3672V12.9207Z" fill="black"/>
<path fill-rule="evenodd" clip-rule="evenodd" d="M102.968 18.0797V18.0394C102.968 15.5704 101.124 13.6033 98.7585 13.6033C96.3332 13.6033 94.5895 15.5902 94.5895 17.9994V18.0394C94.5895 20.509 96.4336 22.4754 98.7988 22.4754C101.224 22.4754 102.968 20.4885 102.968 18.0797ZM93.5273 18.0797V18.0394C93.5273 15.1688 95.752 12.6797 98.7988 12.6797C101.826 12.6797 104.03 15.1292 104.03 17.9994V18.0394C104.03 20.9096 101.805 23.3994 98.7585 23.3994C95.7318 23.3994 93.5273 20.9503 93.5273 18.0797Z" fill="black"/>
<path fill-rule="evenodd" clip-rule="evenodd" d="M105.469 12.9207H106.451V14.8277C107.132 13.6231 108.275 12.6797 110.139 12.6797C112.725 12.6797 114.228 14.4462 114.228 16.8949V23.1584H113.246V17.0761C113.246 14.9681 112.063 13.5827 109.999 13.5827C107.994 13.5827 106.451 15.1086 106.451 17.2364V23.1584H105.469V12.9207Z" fill="black"/>
<path fill-rule="evenodd" clip-rule="evenodd" d="M115.539 21.7007L116.622 20.0553C117.764 20.9187 119.007 21.36 120.089 21.36C121.132 21.36 121.733 20.9187 121.733 20.2159V20.1756C121.733 19.3525 120.61 19.0715 119.368 18.69C117.804 18.2492 116.06 17.6062 116.06 15.5789V15.5385C116.06 13.5314 117.724 12.3066 119.829 12.3066C121.152 12.3066 122.595 12.7688 123.717 13.5108L122.755 15.2374C121.733 14.6153 120.65 14.2338 119.768 14.2338C118.827 14.2338 118.286 14.6754 118.286 15.2979V15.3382C118.286 16.1008 119.428 16.4218 120.67 16.823C122.214 17.305 123.958 18.0078 123.958 19.9152V19.9555C123.958 22.1831 122.234 23.2875 120.029 23.2875C118.525 23.2875 116.862 22.745 115.539 21.7007Z" fill="black"/>
<path fill-rule="evenodd" clip-rule="evenodd" d="M24.2708 22.5156C24.2708 24.377 22.7625 25.8913 20.9039 25.8913H14.4878V23.9514H20.9039C21.6952 23.9514 22.338 23.3081 22.338 22.5156C22.338 21.7239 21.6952 21.0794 20.9039 21.0794L20.6278 21.0749H11.3891C10.1076 21.0342 8.87948 20.6919 7.77482 20.0773C7.37526 19.404 7.14844 18.6157 7.14844 17.778C7.14844 17.5841 7.15702 17.3898 7.18574 17.209C8.34375 18.4427 9.95504 19.1399 11.6648 19.1399H21.1759C22.9233 19.2923 24.2708 20.7738 24.2708 22.5156Z" fill="#3BACF9"/>
<path fill-rule="evenodd" clip-rule="evenodd" d="M24.1252 8.25499C24.1252 9.99647 22.7777 11.4783 21.0507 11.6307H14.3422V9.69121H20.7582C21.5495 9.69121 22.1923 9.04708 22.1923 8.25499C22.1923 7.46216 21.5495 6.81429 20.7582 6.81429H11.5192C8.2925 6.81429 5.60602 9.31946 5.37099 12.53C6.9002 10.7392 9.15019 9.69121 11.5192 9.69121H12.0389V11.6266H11.5192C8.98939 11.6266 6.67748 13.2194 5.76644 15.5889C5.61423 15.9764 5.49895 16.3888 5.43292 16.8099C5.37957 17.1282 5.35457 17.4668 5.35457 17.8045C5.35457 21.2094 8.11977 23.9779 11.5192 23.9779H12.0389V25.9141H11.5192C7.05241 25.9141 3.41797 22.2779 3.41797 17.8045C3.41797 16.9792 3.54145 16.1699 3.78059 15.3984C3.63211 14.9197 3.53325 14.437 3.47542 13.9707C3.43849 13.6573 3.41797 13.3311 3.41797 12.9926C3.41797 8.51915 7.05241 4.87891 11.5192 4.87891H20.7582C22.6169 4.87891 24.1252 6.39359 24.1252 8.25499Z" fill="#3BACF9"/>
<path fill-rule="evenodd" clip-rule="evenodd" d="M30.2773 29.9387H30.6951V1.14258H30.2773V29.9387Z" fill="black"/>
</svg>
